<?xml version="1.0" encoding="UTF-8"?>
<!DOCTYPE svg PUBLIC "-//W3C//DTD SVG 1.1//EN" "http://www.w3.org/Graphics/SVG/1.1/DTD/svg11.dtd">
<!-- Creator: CorelDRAW -->
<svg xmlns="http://www.w3.org/2000/svg" xml:space="preserve" width="210mm" height="297mm" version="1.1" style="shape-rendering:geometricPrecision; text-rendering:geometricPrecision; image-rendering:optimizeQuality; fill-rule:evenodd; clip-rule:evenodd"
viewBox="0 0 21000 29700"
 xmlns:xlink="http://www.w3.org/1999/xlink"
 xmlns:xodm="http://www.corel.com/coreldraw/odm/2003">
 <defs>
  <style type="text/css">
   <![CDATA[
    .fil0 {fill:#6E573F}
   ]]>
  </style>
 </defs>
 <g id="Camada_x0020_1">
  <metadata id="CorelCorpID_0Corel-Layer"/>
  <image id="high-quality.png" x="3791.51" y="7343.14" width="13544.96" height="13544.96" xlink:href="high-quality_Images\high-quality_ImgID1.png"/>
  <g id="_1879294462480">
   <path class="fil0" d="M8659.23 20491.28c-111.54,-29.79 -579.07,-538.54 -694.21,-655 -384.25,-388.64 -453.45,-334.43 -944.48,-404.72l-795.17 -104.3c3.39,-152.03 106.7,-281.19 155.02,-400.54l374.09 -763.48c64.32,-128.23 119.06,-271.89 185.18,-396.83 608.47,407.45 703.42,-67.46 934.59,202.81 98.55,115.21 39.32,244.07 208.57,426.51 430.08,463.58 849.89,58.51 999.69,58.51 223.37,0 223.4,254.24 396.83,370.37l-608.47 1243.39c-59.38,118.75 -144.12,322.45 -211.64,423.28zm-4867.72 -4478.8l0 -90.05c26.97,-420.08 396.83,-980.83 396.83,-1277.71 0,-288.74 -396.83,-968.76 -396.83,-1269.84 0,-231.06 113.19,-450.35 349.72,-496.84 136.09,-26.75 568.16,-5.8 734.94,-5.8 -201.53,-380.86 -171.39,-737.5 220.71,-969.76 308.81,-182.92 95.26,-320.57 27.99,-575.6 -70.7,-268.02 25.09,-499.02 179.87,-645.12 157.55,-148.7 523.81,-130.61 523.81,-375.66 0,-218.04 -195.06,-572.79 226.08,-858.57 219.56,-148.98 515.65,-87.73 615.86,-177.79 132.7,-119.24 31.69,-365.53 183.81,-609.84 282.32,-453.41 685.3,-232.1 852.55,-232.1 235.66,0 236,-343.4 339.15,-480.96 389.87,-519.97 853.8,-101.05 1036.51,-101.05 102.12,0 155.39,-48.18 201.06,-116.41 126.06,-188.32 255.38,-386.24 539.68,-386.24 504.74,0 536.75,317.46 740.74,317.46 201.57,0 272.88,-317.46 634.92,-317.46 612.25,0 571.33,502.65 846.56,502.65 191.77,0 665.77,-428.97 1043.44,120.58 85.81,124.88 72.7,143.92 116,280.82 91.59,289.63 279.39,127.7 480.77,127.7 375.23,0 684.95,226.54 688,608.29 3.19,399.65 145.08,299.6 435.03,358.62 737.91,150.2 490.73,885.18 490.73,990.76 0,196.56 387.28,211.53 537.09,362.37 153.44,154.49 238,387.57 161.02,653.04 -75.69,261.03 -280.83,372.57 50.57,563.94 389.06,224.67 396.99,595.01 203.7,960.33 166.77,0 598.84,-20.95 734.93,5.8 146.78,28.85 349.72,208.45 349.72,391.02 0,210.5 -115.63,547.59 -196.35,756.03 -273.68,706.71 -228.6,574.95 7.8,1284.37 103.91,311.86 376.18,827.51 -30.34,1047.59 -276.44,149.66 -1438.84,86.61 -1791.69,86.61 -4.2,188.39 -146.57,348.82 -264.84,422.99 -55.52,34.82 -176.7,89.79 -243.55,100.37 -272.06,43.05 -593.76,-77.01 -329.01,472.77 81.4,169.04 395.8,696.99 -9.16,696.99 -171.56,0 -225.75,-247.04 -291,-370.37 -104.99,70.3 -197.57,158.73 -370.37,158.73 -165,0 -410.08,-68.84 -507,-6.22 -127.22,82.19 -101.2,176.85 -162.18,315.88 -81.26,185.21 -294.31,378.17 -547.75,378.17 -288.11,0 -406.8,-158.73 -555.56,-158.73 -223.37,0 -223.4,254.24 -396.82,370.37 283.4,535.61 536.13,1129.99 820.1,1666.67 151.67,-40.5 617.21,-593.52 793.65,-740.75 326.08,-272.08 341.31,-261.3 846.56,-317.46 261.67,-29.08 541.17,-84.8 793.65,-105.81 -3.12,-139.98 -61.22,-192.77 -105.47,-291.36 -73.56,-163.95 -218.55,-475.84 105.47,-475.84 173.03,0 205.69,173.31 273.37,308.64 129.88,259.69 257.61,566.97 -29.91,781.38 -111.42,83.1 -266.08,106.72 -430.73,124.83 -175.84,19.34 -316.09,37.82 -495.72,59.83 -702.69,86.11 -529.49,56.85 -1069.65,597.01 -170.13,170.13 -358.43,456.35 -628.31,456.35 -443.08,0 -531.88,-431.14 -749.58,-864.18 -101.63,-202.15 -398.39,-934.05 -509.9,-1024.49 -60.66,-49.19 -251.31,-50.23 -370.36,-132.28 -104.49,-72.02 -144.78,-201.27 -301.37,-201.27 -208.48,0 -223.91,120.58 -370.3,211.71 -95.58,59.5 -202.86,58.97 -302.27,94.56 -128.71,46.07 -343.24,571.76 -411.75,725.82 -110.25,247.94 -213.66,452.74 -335.44,696.3 -134.6,269.22 -216.34,493.83 -564.37,493.83 -411.2,0 -864.93,-901.07 -1228.22,-994 -55.23,-14.13 -212.86,-27.42 -258.1,-32.91 -104.15,-12.63 -146.44,-17.27 -234.75,-29.79 -252.07,-35.74 -719.8,-29.64 -918.18,-192.94 -282.41,-232.48 -129.93,-540.08 2.57,-805.03l773.82 -1607.35c35.94,-189.83 -148.14,-252.55 -306.19,-253.58 -307.81,-2 -627.84,-199.23 -635.18,-528.84 -355.12,0 -1536.87,65.63 -1809.12,-95.64 -134.91,-79.92 -192,-197.46 -201.46,-335.54zm4074.07 431.18l5396.82 0c-146.3,199.68 -867.08,569.41 -1144.88,680.51 -1206.95,482.69 -2597.03,359.94 -3711.68,-294.85 -127.44,-74.87 -472.09,-292.62 -540.26,-385.66zm-1640.21 0c229.27,0 458.57,0.34 687.84,-0.01 575.49,-0.88 251.45,46.31 894.12,481.54 921.13,623.78 1611.01,894.13 2915.39,894.13 1032.12,0 1862.15,-389.77 2582.01,-883.59 186.49,-127.93 247.34,-204.45 380.96,-306.88 246.79,-189.19 63.77,-186.53 502.6,-185.23 238.07,0.71 476.24,0.04 714.32,0.04 -160.81,240.15 -459.39,-22.5 -774.65,336.46 -241.38,274.83 -47.03,748.2 -362.91,748.2 -100.07,0 -628.73,-231.7 -904.64,285.83 -54.13,101.53 -99.27,538.25 -443.18,348.42 -120,-66.23 -138.46,-100.17 -331.69,-116.35 -580.13,-48.59 -556.42,513.84 -833.72,513.84 -238.24,0 -198.64,-317.46 -740.74,-317.46 -450.39,0 -571.15,646.49 -880.99,113.8 -61.03,-104.92 -122.25,-163.81 -223.69,-226.05 -491.58,-301.59 -754.34,244.96 -993.44,14.97 -130.12,-125.17 -91.24,-669.91 -759.02,-669.91 -138.41,0 -499.57,220.62 -502.9,-264.3 -2.18,-316.79 -187.52,-560.62 -481.62,-629.49 -321.48,-75.27 -325.78,38.67 -444.05,-137.96zm-317.46 -3571.42c-633.42,0 -448.71,33.96 -604.19,-163.01 -99.58,-126.18 -136.55,-57.63 -136.55,-260.27 0,-283.54 502.65,-179.86 502.65,-820.11 0,-220.34 -158.73,-321.55 -158.73,-476.19 0,-353.24 740.74,-157.05 740.74,-873.01 0,-132.45 -52.91,-185.02 -52.91,-317.46 0,-403.52 493.88,6.55 847.79,-501.42 187.63,-269.31 -16.94,-644.48 322.92,-676.45 219.07,-20.61 723.93,279.26 967.87,-493.07 166.56,-527.31 617.4,291.75 1149.02,-173.73 184.52,-161.57 285.42,-583.44 607.99,-252 259.81,266.95 685.79,261.84 939.05,0.1 322.85,-333.66 423.2,90.17 607.9,251.9 524.46,459.2 970.5,-331.99 1142.57,153.72 44.87,126.63 28.41,151.74 101.74,268.64 359.23,572.62 912.37,44.93 1062.81,365.75 74.73,159.34 -20.86,317.27 121.98,539.4 323.8,503.56 858.51,145.24 858.51,490.7 0,160.51 -200.44,558.13 214.2,870.45 225.76,170.05 473.63,76.34 473.63,346.48 0,145.91 -388.55,554.42 31.78,973.51 82.44,82.19 86.88,72.09 186.04,131.41 342.94,205.18 -76.28,480.87 -112,614.66l-502.65 0c0,-894 -382.49,-1733.39 -851.73,-2428.69 -304.47,-451.16 -471.02,-79.33 -471.02,-5.17 0,79.41 256.26,420.08 312.56,507.54 293.55,456.03 472.14,1009.48 564.61,1551.79 19.34,113.44 22.18,260.45 48.76,374.53 -2160.5,0 -4320.99,0 -6481.48,0 -266.63,0 -767.19,-84.03 -767.19,185.18 0,210.29 156.22,213.88 369.98,212.03l4206.73 -0.39c561.98,0 4604.89,-48.88 4761.9,26.46 68.52,69.49 -396.82,1110.47 -396.82,1349.2 0,117.03 255.21,831.64 320.82,1028.38 59.61,178.73 102.5,222.14 76,347.28l-12698.4 0c-26.45,-124.89 6.24,-138.48 69.38,-327.44 385.54,-1153.81 416.45,-847.29 119.17,-1739.42 -27.59,-82.8 -229.37,-614.85 -188.55,-658 62.29,-65.86 2086.2,-29.62 2487.16,-26.07 192.08,1.7 310.15,6.88 354.77,-150.38 97.28,-342.81 -504.74,-246.83 -751.98,-246.83 54.1,-232.26 31.77,-428.05 147.08,-831.75 120.02,-420.15 235.15,-702.74 446.09,-1061.85 72.9,-124.12 126.05,-196.78 200.26,-302.38l455.81 -549.48c702.11,-686.84 1782.28,-1222.79 2798.37,-1222.79 821.24,0 1168.6,36.69 1942.58,359 278.11,115.82 647.56,332.32 879.88,522.24 76.68,62.68 184.28,176.96 299.23,176.96 179.27,0 260.81,-183.32 164.55,-321.98 -34.96,-50.36 -269.21,-219.28 -338.37,-271.4 -785.23,-591.87 -1793,-888.1 -2789.14,-888.1 -1070.76,0 -2103.9,406.97 -2877.52,1037.82 -975.68,795.62 -1725.65,2084.46 -1725.65,3353.71z"/>
   <path class="fil0" d="M6066.64 15120.91c-445,213.52 -933.64,-373.57 -560.98,-825.53 187.51,-227.41 768.73,-263.29 886.45,264.07 27.96,125.26 -8.01,123.07 -8.01,270.46 -108.21,-72.47 -90.83,-132.28 -264.55,-132.28 -84.77,0 -165.37,102.54 -173.91,192.49 -11.48,120.86 67.78,151.32 121,230.79zm-1111.11 -476.19c0,522.75 404.56,925.93 978.84,925.93 228.34,0 305.17,-92.44 476.19,-132.28 230.53,344.28 603.1,-64.3 264.55,-291 628.38,-1187.57 -1057.81,-2021.18 -1632.11,-891.37 -47.44,93.33 -87.47,257.38 -87.47,388.72z"/>
   <path class="fil0" d="M10114.26 11390.76c0,1198.12 1746.03,1405.1 1746.03,0 0,-215.1 -458.93,-158.73 -661.38,-158.73 -93.15,0 -219.89,144.73 -158.2,287.95 54.49,126.5 189.76,135.33 369.84,135.33 -25.63,308.02 -446.03,389.82 -719.71,164.15 -299.32,-246.81 -160.87,-904.89 349.34,-904.89 148.07,0 348.57,132.27 370.37,132.27 330.07,0 446.68,-529.1 -476.19,-529.1 -366.32,0 -820.1,422.15 -820.1,873.02z"/>
   <path class="fil0" d="M7601.03 10808.75l0 1296.29c0,400.17 423.28,329.41 423.28,52.91l0 -529.1 582.01 0 0 529.1c0,276.5 423.28,347.26 423.28,-52.91l0 -1296.29c0,-385.85 -423.28,-319.02 -423.28,-52.91l0 476.19 -582.01 0c0,-520.16 62.99,-687.83 -264.55,-687.83 -108.68,0 -158.73,145.44 -158.73,264.55z"/>
   <path class="fil0" d="M12098.38 10808.75l0 1296.29c0,400.17 423.28,329.41 423.28,52.91l0 -529.1 582.01 0 0 529.1c0,276.5 423.28,347.26 423.28,-52.91l0 -1296.29c0,-385.85 -423.28,-319.02 -423.28,-52.91l0 476.19 -582.01 0c0,-520.16 62.99,-687.83 -264.55,-687.83 -108.68,0 -158.73,145.44 -158.73,264.55z"/>
   <path class="fil0" d="M9955.53 14459.54l76.21 161.88c31.47,77.8 48.57,92.02 56.06,182.03l-264.55 0c36.43,-68.85 113.29,-262.43 132.28,-343.91zm-767.2 925.92c0,156.08 345.87,400.65 476.19,-158.73l608.47 0c124.63,534.96 419.01,341.16 460.5,194.4 35.3,-124.86 -388.79,-1127.35 -456.51,-1309.51 -61.44,-165.29 -105.43,-392.82 -321.45,-392.82 -190.44,0 -219.75,178.65 -279.71,328.76 -84.46,211.45 -487.49,1258.82 -487.49,1337.9z"/>
   <path class="fil0" d="M7389.39 13930.44l0 1031.74c0,622.69 991.43,840.26 1318.18,286.43 28.75,-48.74 83.94,-165.86 83.94,-233.52l0 -1137.56c0,-154.45 -391.95,-304.81 -398.53,104.11 -2.68,165.91 1.7,337.59 1.7,504.35 0,271.21 82.97,656.62 -294.09,679.61 -378.02,23.05 -314.4,-434.83 -314.38,-653.15 0.04,-345.48 81.31,-793.65 -185.18,-793.65 -127.97,0 -211.64,83.67 -211.64,211.64z"/>
   <path class="fil0" d="M14849.7 13877.53c0,185.57 84.68,259.36 190.46,418l233.19 348.82c137.76,291.99 -178.82,926.3 264.18,926.3 65.42,0 123.95,-61.09 149.98,-114.57 95.97,-197.13 -33.52,-612.95 56.11,-816.91 13.87,-31.57 81.13,-121.26 106.09,-158.46 68.3,-101.84 322.74,-469.08 322.74,-550.27 0,-108.97 -102.68,-211.64 -211.64,-211.64 -202.19,0 -317.93,423.12 -476.19,529.1 -6.43,-24.08 -263.43,-529.11 -423.28,-529.1 -96.68,0 -211.64,73 -211.64,158.73z"/>
   <path class="fil0" d="M13235.95 13930.44c0,205.08 251.48,211.64 396.82,211.64l0 1164.02c0,361.94 423.28,361.94 423.28,0l0 -1164.02c104.28,0 212.83,8.94 296.42,-47.5 184.66,-124.71 94.58,-375.78 -111.23,-375.78l-793.65 0c-125.36,0 -211.64,107.51 -211.64,211.64z"/>
   <path class="fil0" d="M11119.55 14009.8c0,264.27 -38.7,1323.28 44.18,1463.75 89.77,152.13 337.53,97.1 670.1,97.1 225.33,0 308.77,-298.9 73.64,-392.92 -90.73,-36.28 -197.2,-3.91 -364.64,-3.91l0 -1243.38c0,-284.31 -423.28,-307.58 -423.28,79.36z"/>
   <path class="fil0" d="M9320.61 10702.93l0 1507.93c0,187.02 396.82,243.57 396.82,-52.91l0 -1481.48c0,-183.08 -396.82,-255.71 -396.82,26.46z"/>
   <path class="fil0" d="M12442.3 13930.44l0 1428.57c0,297.4 396.82,248.41 396.82,52.91l0 -1534.39c0,-180.25 -396.82,-251.16 -396.82,52.91z"/>
  </g>
 </g>
</svg>
