<?xml version="1.0" encoding="UTF-8"?>
<!DOCTYPE svg PUBLIC "-//W3C//DTD SVG 1.1//EN" "http://www.w3.org/Graphics/SVG/1.1/DTD/svg11.dtd">
<!-- Creator: CorelDRAW -->
<svg xmlns="http://www.w3.org/2000/svg" xml:space="preserve" width="210mm" height="297mm" version="1.1" style="shape-rendering:geometricPrecision; text-rendering:geometricPrecision; image-rendering:optimizeQuality; fill-rule:evenodd; clip-rule:evenodd"
viewBox="0 0 21000 29700"
 xmlns:xlink="http://www.w3.org/1999/xlink"
 xmlns:xodm="http://www.corel.com/coreldraw/odm/2003">
 <defs>
  <style type="text/css">
   <![CDATA[
    .fil0 {fill:#6E573F}
   ]]>
  </style>
 </defs>
 <g id="Camada_x0020_1">
  <metadata id="CorelCorpID_0Corel-Layer"/>
  <image id="design.png" x="3720.39" y="8078.05" width="13544.96" height="13544.96" xlink:href="ideia_Images\ideia_ImgID1.png"/>
  <g id="_1879294499104">
   <path class="fil0" d="M9275.94 19956.35c0,-146.87 26.46,-156.88 26.46,-291.01l2407.4 0c0,377.28 64.83,1168.94 -124.69,1383.25 -99.51,112.53 -228.93,177.6 -430.86,177.6l-1322.75 0c-415.37,0 -555.56,-262.14 -555.56,-634.92l1798.94 0c384.48,0 316.65,-423.28 52.91,-423.28l-1851.85 0 0 -211.64zm343.92 -4179.89l1746.03 0 0 502.64 -1746.03 0 0 -502.64zm211.64 -793.65l1322.75 0 0 396.82 -1322.75 0 0 -396.82zm-555.56 -1481.48c50.54,-216.92 859.27,-1463.07 1005.29,-1560.85l-1.27 1535.66c1.71,440.43 418.65,428.61 425.86,26.5l-1.31 -1562.16c139.55,102.25 760.61,1098.23 891.32,1330.9 48.08,85.57 90.33,128.49 113.97,229.95 -105.91,158.16 -205.8,281.79 -300.41,466.78 -61.51,120.27 -198.86,439.69 -202.23,591.42l-1402.12 0c-77.51,-332.7 -164.65,-569.61 -348.59,-841.89 -66.77,-98.81 -123.15,-130.66 -180.51,-216.31zm-2989.41 -185.19c0,742.75 43.82,1261.34 361.47,1940.11 34.37,73.45 41.79,115.09 79.44,185.11 589.44,1096.15 1418.4,1407.8 1411.11,2821.69 -2.11,409.74 -31.61,656.77 123.16,935.04 100.19,180.13 367.6,435.23 617.41,440.8l0 1190.47c0,371.86 421.79,793.65 793.65,793.65l1640.21 0c380.28,0 793.65,-419.17 793.65,-846.56l0 -1137.56c271.5,-6.05 514.39,-248.14 620.43,-437.77 310.63,-555.49 -168.62,-1519.88 645.44,-2555.61 89.26,-113.56 148.8,-176.01 249.2,-279.9 81.82,-84.67 163.87,-199.49 234.79,-294.31 237.14,-317.04 432.97,-636.51 568.38,-1018.92 51.68,-145.95 85.62,-238.4 130.92,-398.19 277.03,-977.38 158.83,-2147.35 -305.86,-3031.62 -102.16,-194.39 -181.38,-396.37 -344.36,-396.37 -222.41,0 -264.45,177.08 -121.2,412.19 51.42,84.39 79.46,139.25 121.32,222.6 65.88,131.2 154.73,329.34 200.71,487.12 53.4,183.24 108.47,372.51 135.74,552.09 174.16,1147.22 -128.88,2331.71 -898.41,3160.98 -500.21,539.04 -750.56,959.31 -878.99,1740.06 -111.84,679.94 246.02,1467.28 -675.57,1467.28l0 -3518.52c0,-97.08 -63.4,-189.44 -121.88,-248.5 -144.05,-145.48 -89.76,-75.45 -89.76,-677.42 0,-636.48 582.01,-1093.66 582.01,-1322.75 0,-103.77 -99.64,-248.13 -147.47,-328.73l-459.48 -757.45c-43.72,-72.91 -61.92,-94.13 -107.15,-157.4l-408.34 -570.5c-74.27,-99.09 -137.86,-197.62 -219.58,-283.06 -428.07,-447.54 -702.66,19.32 -1065.6,536.08l-590.17 891.31c-569.65,952.46 -318.61,640.89 27,1233.13 273.49,468.66 219.47,784.36 219.47,1314.92 0,68.31 -23.96,55.4 -89.77,121.87 -59.7,60.29 -121.87,152.37 -121.87,248.5l0 2857.14c0,264.46 423.28,320.63 423.28,-79.36l0 -1825.4 1746.03 0 0 2566.14 -2222.22 0c-299.46,0 -545.11,-173.25 -579.73,-425.57 -85.92,-626.29 143,-1431.64 -625.57,-2443.21 -332.97,-438.25 -572.52,-592.34 -858.78,-1178.25 -930.64,-1904.79 -155.62,-4140.59 1755.43,-5097.59 1361.8,-681.94 3184.18,-432.44 4270.29,659.17 47.95,48.19 276.38,336.89 450.12,145.9 176.96,-194.53 -146.98,-455.42 -337.64,-602.3 -794.35,-611.97 -1585.82,-1005.23 -2724.92,-1005.23 -1094.19,0 -2199.45,462.39 -2916.69,1183.83 -346.98,349.02 -538.09,579.47 -769.64,1002.85 -281.65,514.95 -520.01,1191.21 -520.01,1808.02z"/>
   <path class="fil0" d="M10281.23 8289.69c0,265.21 -56.57,555.56 211.64,555.56 260.42,0 211.64,-324.35 211.64,-502.65 0,-162.79 -75.9,-244.47 -163.4,-264.55l-90.1 0c-90.17,19.76 -169.78,97.26 -169.78,211.64z"/>
   <path class="fil0" d="M6603.99 9850.54c0,127.87 329.82,517.03 512,461 82.77,-25.45 149.37,-105.28 149.37,-196.45 0,-131.51 -104.57,-197.61 -178.54,-271.2 -62.9,-62.57 -169.94,-204.99 -271.19,-204.99 -104.13,0 -211.64,86.28 -211.64,211.64z"/>
   <path class="fil0" d="M13720.38 10088.63c0,217.08 205.21,302.24 364.98,153.51 87.02,-81.01 296.4,-252.31 296.4,-391.6 0,-125.36 -107.52,-211.64 -211.64,-211.64 -105.13,0 -449.74,344.6 -449.74,449.73z"/>
   <path class="fil0" d="M15148.95 13660.06c0,319.26 767.2,275.68 767.2,0 0,-278 -382.69,-211.64 -555.56,-211.64 -127.97,0 -211.64,83.67 -211.64,211.64z"/>
   <path class="fil0" d="M5069.6 13660.06c0,275.68 767.19,319.26 767.19,0 0,-271.14 -299.12,-211.64 -582.01,-211.64 -87.47,0 -185.18,123.17 -185.18,211.64z"/>
   <path class="fil0" d="M13720.38 17178.57c0,120.44 230.02,476.19 502.65,476.19 74.75,0 158.73,-110.33 158.73,-185.18 0,-155.03 -360.72,-476.19 -449.74,-476.19 -113.21,0 -211.64,81.54 -211.64,185.18z"/>
   <path class="fil0" d="M6603.99 17469.58c0,116.72 85.26,185.18 211.64,185.18 176.76,0 449.73,-363.59 449.73,-449.73 0,-113.22 -81.55,-211.64 -185.18,-211.64 -141.84,0 -476.19,334.35 -476.19,476.19z"/>
  </g>
 </g>
</svg>
